# Blender 3.1.0
# www.blender.org
mtllib boek_01.mtl
o Boek
v 1.550093 1.474393 1.246643
v 1.550093 -1.535552 1.246643
v 1.499755 1.474319 1.307080
v 1.499755 -1.535626 1.307080
v 0.020122 1.474393 -0.041451
v 0.020122 -1.535552 -0.041451
v -0.030217 1.474319 0.018986
v -0.030217 -1.535626 0.018986
v -0.010511 1.473577 -0.036324
v -0.010511 -1.536367 -0.036324
v -0.010511 1.473577 0.033105
v -0.010511 -1.536367 0.033105
v -2.010511 1.473577 -0.036324
v -2.010511 -1.536367 -0.036324
v -2.010511 1.473577 0.033105
v -2.010511 -1.536367 0.033105
vn -0.0006 1.0000 0.0007
vn -0.6440 -0.0000 0.7650
vn -0.7684 -0.0000 -0.6400
vn 0.0006 -1.0000 -0.0007
vn 0.7684 -0.0000 0.6400
vn 0.6440 -0.0000 -0.7650
vn -0.0000 1.0000 -0.0000
vn -0.0000 -0.0000 1.0000
vn -1.0000 -0.0000 -0.0000
vn -0.0000 -1.0000 -0.0000
vn 1.0000 -0.0000 -0.0000
vn -0.0000 -0.0000 -1.0000
vt 0.625000 0.500000
vt 0.375000 0.500000
vt 0.625000 0.750000
vt 0.375000 0.750000
vt 0.875000 0.500000
vt 0.625000 0.250000
vt 0.125000 0.500000
vt 0.375000 0.250000
vt 0.875000 0.750000
vt 0.625000 1.000000
vt 0.625000 0.000000
vt 0.375000 1.000000
vt 0.375000 0.000000
vt 0.125000 0.750000
vt 0.625000 0.500000
vt 0.375000 0.500000
vt 0.625000 0.750000
vt 0.375000 0.750000
vt 0.875000 0.500000
vt 0.625000 0.250000
vt 0.125000 0.500000
vt 0.375000 0.250000
vt 0.875000 0.750000
vt 0.625000 1.000000
vt 0.625000 0.000000
vt 0.375000 1.000000
vt 0.375000 0.000000
vt 0.125000 0.750000
s 0
usemtl Material
f 1/1/1 5/5/1 7/9/1 3/3/1
f 4/4/2 3/3/2 7/10/2 8/12/2
f 8/13/3 7/11/3 5/6/3 6/8/3
f 6/7/4 2/2/4 4/4/4 8/14/4
f 2/2/5 1/1/5 3/3/5 4/4/5
f 6/8/6 5/6/6 1/1/6 2/2/6
usemtl Material.001
f 9/15/7 13/19/7 15/23/7 11/17/7
f 12/18/8 11/17/8 15/24/8 16/26/8
f 16/27/9 15/25/9 13/20/9 14/22/9
f 14/21/10 10/16/10 12/18/10 16/28/10
f 10/16/11 9/15/11 11/17/11 12/18/11
f 14/22/12 13/20/12 9/15/12 10/16/12
